<?xml version="1.0" standalone="no"?>
<!DOCTYPE svg PUBLIC "-//W3C//DTD SVG 1.1//EN" "http://www.w3.org/Graphics/SVG/1.1/DTD/svg11.dtd" >
<svg xmlns="http://www.w3.org/2000/svg">
<metadata>Generated by IcoMoon</metadata>
<defs>
<font id="icomoon" horiz-adv-x="1024">
<font-face units-per-em="1024" ascent="960" descent="-64" />
<missing-glyph horiz-adv-x="1024" />
<glyph unicode="&#x20;" horiz-adv-x="512" d="" />
<glyph unicode="&#xe900;" glyph-name="secure" d="M465.067 306.133l243.2 243.2-44.8 43.733-195.2-195.2-107.733 107.733-46.933-46.933zM512 22.4q-149.333 37.333-245.333 173.333t-96 298.133v253.867l341.333 128 341.333-128v-253.867q0-162.133-96-298.133t-245.333-173.333zM512 436.267q0 0 0 0t0 0 0 0 0 0zM512 88.533q122.667 40.533 200 153.067t77.333 252.267v209.067l-277.333 104.533-277.333-104.533v-209.067q0-139.733 77.333-252.267t200-153.067z" />
<glyph unicode="&#xe901;" glyph-name="calender" d="M85.333 632.889c0 53.635 0 80.453 16.662 97.115s43.48 16.662 97.115 16.662h625.778c53.635 0 80.452 0 97.115-16.662s16.663-43.48 16.663-97.115v-71.111c0-13.409 0-20.113-4.164-24.28-4.167-4.164-10.871-4.164-24.28-4.164h-796.444c-13.409 0-20.113 0-24.279 4.164-4.166 4.167-4.166 10.871-4.166 24.28v71.111zM85.333 135.111c0-53.635 0-80.452 16.662-97.115s43.48-16.663 97.115-16.663h625.778c53.635 0 80.452 0 97.115 16.663s16.663 43.48 16.663 97.115v284.444c0 13.409 0 20.113-4.164 24.28-4.167 4.164-10.871 4.164-24.28 4.164h-796.444c-13.409 0-20.113 0-24.279-4.164-4.166-4.167-4.166-10.871-4.166-24.28v-284.444zM298.667 334.222c0 13.409 0 20.113 4.164 24.28 4.167 4.164 10.871 4.164 24.28 4.164h113.778c13.409 0 20.113 0 24.28-4.164 4.164-4.167 4.164-10.871 4.164-24.28v-28.444c0-13.409 0-20.113-4.164-24.28-4.167-4.164-10.871-4.164-24.28-4.164h-113.778c-13.409 0-20.113 0-24.28 4.164-4.164 4.167-4.164 10.871-4.164 24.28v28.444zM302.831 187.836c4.167 4.164 10.871 4.164 24.28 4.164h113.778c13.409 0 20.113 0 24.28-4.164 4.164-4.167 4.164-10.871 4.164-24.28v-28.444c0-13.409 0-20.113-4.164-24.28-4.167-4.164-10.871-4.164-24.28-4.164h-113.778c-13.409 0-20.113 0-24.28 4.164-4.164 4.167-4.164 10.871-4.164 24.28v28.444c0 13.409 0 20.113 4.164 24.28zM554.667 334.222c0 13.409 0 20.113 4.164 24.28 4.167 4.164 10.871 4.164 24.28 4.164h113.778c13.409 0 20.113 0 24.28-4.164 4.164-4.167 4.164-10.871 4.164-24.28v-28.444c0-13.409 0-20.113-4.164-24.28-4.167-4.164-10.871-4.164-24.28-4.164h-113.778c-13.409 0-20.113 0-24.28 4.164-4.164 4.167-4.164 10.871-4.164 24.28v28.444zM558.831 187.836c4.167 4.164 10.871 4.164 24.28 4.164h113.778c13.409 0 20.113 0 24.28-4.164 4.164-4.167 4.164-10.871 4.164-24.28v-28.444c0-13.409 0-20.113-4.164-24.28-4.167-4.164-10.871-4.164-24.28-4.164h-113.778c-13.409 0-20.113 0-24.28 4.164-4.164 4.167-4.164 10.871-4.164 24.28v28.444c0 13.409 0 20.113 4.164 24.28z" />
<glyph unicode="&#xe902;" glyph-name="dashboard" d="M192 64q-25.6 0-44.8 19.2t-19.2 44.8v640q0 25.6 19.2 44.8t44.8 19.2h640q25.6 0 44.8-19.2t19.2-44.8v-640q0-25.6-19.2-44.8t-44.8-19.2zM192 128h640q0 0 0 0t0 0v640q0 0 0 0t0 0h-640q0 0 0 0t0 0v-640q0 0 0 0t0 0zM302.933 231.467h64v218.667h-64zM657.067 231.467h64v448h-64zM480 231.467h64v125.867h-64zM480 450.133h64v64h-64zM192 128q0 0 0 0t0 0v640q0 0 0 0t0 0 0 0 0 0v-640q0 0 0 0t0 0z" />
<glyph unicode="&#xe903;" glyph-name="bell" d="M132.267 540.8q0 86.4 36.267 163.733t103.467 131.733l43.733-48q-56.533-45.867-88-110.4t-31.467-137.067zM828.8 540.8q0 72.533-29.867 137.067t-86.4 110.4l43.733 48q66.133-55.467 101.333-132.267t35.2-163.2zM170.667 149.333v64h89.6v326.4q0 87.467 52.8 158.4t139.2 89.067v30.933q0 24.533 17.6 40.533t42.133 16 42.133-16 17.6-40.533v-30.933q86.4-18.133 139.733-89.067t53.333-158.4v-326.4h88.533v-64zM512 464q0 0 0 0t0 0 0 0 0 0zM512 21.333q-34.133 0-59.733 25.067t-25.6 60.267h170.667q0-35.2-25.067-60.267t-60.267-25.067zM324.267 213.333h376.533v326.4q0 80-54.4 134.933t-133.333 54.933q-80 0-134.4-54.933t-54.4-134.933z" />
<glyph unicode="&#xe904;" glyph-name="edit" d="M192 128h46.933l517.333 517.333-46.933 46.933-517.333-517.333zM128 64v136.533l627.2 627.2q18.133 18.133 45.333 17.6t45.333-18.667l45.867-45.867q18.133-18.133 18.133-44.8t-18.133-44.8l-627.2-627.2zM842.667 737.067l-43.733 43.733zM756.267 645.333v0z" />
<glyph unicode="&#xe905;" glyph-name="video" horiz-adv-x="1396" d="M209.455 936.727c-55.551 0-108.827-22.067-148.107-61.348s-61.348-92.556-61.348-148.107v-558.545c0-55.552 22.067-108.828 61.348-148.108s92.556-61.347 148.107-61.347h698.182c55.552 0 108.828 22.067 148.108 61.347s61.347 92.556 61.347 148.108v110.732l160.093-160.093c9.765-9.761 22.202-16.407 35.747-19.102 13.54-2.69 27.574-1.308 40.332 3.975 12.753 5.283 23.659 14.229 31.33 25.707s11.767 24.976 11.771 38.782v558.545c-0.005 13.807-4.101 27.302-11.771 38.781s-18.576 20.425-31.33 25.708c-12.758 5.283-26.792 6.666-40.332 3.973-13.545-2.693-25.982-9.34-35.747-19.101l-160.093-160.093v110.732c0 55.551-22.067 108.827-61.347 148.107s-92.556 61.348-148.108 61.348h-698.182z" />
<glyph unicode="&#xe906;" glyph-name="arrow-down" horiz-adv-x="555" d="M20.479 194.769l41.774 41.775 185.882-185.882v877.462c0 16.314 13.225 29.539 29.539 29.539s29.538-13.225 29.538-29.539v-877.462l185.882 185.882 41.775-41.775-257.196-257.195-257.195 257.195z" />
<glyph unicode="&#xe907;" glyph-name="info" d="M512 857.6c-108.633 0-212.816-43.154-289.631-119.969s-119.969-180.998-119.969-289.631c0-108.631 43.154-212.818 119.969-289.633s180.998-119.967 289.631-119.967c108.631 0 212.818 43.151 289.633 119.967 76.81 76.815 119.967 181.002 119.967 289.633 0 108.633-43.156 212.816-119.967 289.631-76.815 76.815-181.002 119.969-289.633 119.969zM0 448c0 282.778 229.222 512 512 512s512-229.222 512-512c0-282.778-229.222-512-512-512s-512 229.222-512 512zM512 192c13.578 0 26.604 5.396 36.204 14.996s14.996 22.625 14.996 36.204v204.8c0 13.579-5.396 26.602-14.996 36.204s-22.625 14.996-36.204 14.996c-13.579 0-26.602-5.394-36.204-14.996s-14.996-22.625-14.996-36.204v-204.8c0-13.578 5.394-26.604 14.996-36.204s22.625-14.996 36.204-14.996zM512 704c-13.579 0-26.602-5.394-36.204-14.996s-14.996-22.625-14.996-36.204c0-13.579 5.394-26.602 14.996-36.204s22.625-14.996 36.204-14.996h0.512c13.578 0 26.604 5.394 36.204 14.996s14.996 22.625 14.996 36.204c0 13.579-5.396 26.602-14.996 36.204s-22.625 14.996-36.204 14.996h-0.512z" />
<glyph unicode="&#xe908;" glyph-name="filter" d="M597.333 405.333v-256q0-18.133-12.267-30.4t-30.4-12.267h-85.333q-18.133 0-30.4 12.267t-12.267 30.4v256l-254.933 325.333q-14.933 18.133-4.267 38.4t33.067 20.267h622.933q22.4 0 33.067-20.267t-4.267-38.4zM512 401.067l256 324.267h-512z" />
<glyph unicode="&#xe909;" glyph-name="user" d="M851.311 92.046c16.771 3.496 26.752 20.995 19.166 36.358-25.287 51.217-68.338 96.233-124.712 129.877-67.063 40.024-149.234 61.719-233.765 61.719s-166.702-21.695-233.764-61.719c-56.374-33.644-99.425-78.66-124.713-129.877-7.584-15.363 2.396-32.862 19.167-36.358l107.178-22.335c153.109-31.909 311.152-31.909 464.263 0l107.179 22.335zM725.333 618.667c0-117.821-95.513-213.333-213.333-213.333s-213.333 95.513-213.333 213.333c0 117.821 95.513 213.333 213.333 213.333s213.333-95.513 213.333-213.333z" />
<glyph unicode="&#xe90a;" glyph-name="alert" d="M390.374 625.863c-14.504 48.344-21.754 72.515-18.551 91.984 4.486 27.277 21.905 50.691 46.743 62.825 17.727 8.661 42.962 8.661 93.434 8.661s75.708 0 93.434-8.661c24.838-12.134 42.257-35.548 46.743-62.825 3.203-19.469-4.048-43.64-18.551-91.984l-66.796-222.655c-5.86-19.53-8.789-29.295-16.347-34.918s-17.866-5.623-38.482-5.623c-20.617 0-30.925 0-38.482 5.623s-10.487 15.388-16.347 34.918l-66.796 222.655zM597.333 149.333c0-47.128-38.205-85.333-85.333-85.333s-85.333 38.205-85.333 85.333c0 47.128 38.205 85.333 85.333 85.333s85.333-38.205 85.333-85.333z" />
<glyph unicode="&#xe90b;" glyph-name="benchmark" d="M434.133 282.667q24.533-24.533 70.933-22.933t67.733 34.667l230.4 361.6-357.333-233.6q-32-21.333-34.133-68.267t22.4-71.467zM204.8 106.667q-18.133 0-35.733 9.067t-26.133 26.133q-27.733 51.2-42.667 104t-14.933 112.533q0 88.533 33.6 166.933t91.2 136.533 134.933 92.267 164.8 34.133q60.8 0 126.933-19.733t126.933-67.733l-55.467-39.467q-48 32-102.933 47.467t-95.467 15.467q-149.333 0-254.933-106.667t-105.6-259.2q0-48 13.333-97.067t37.867-90.667h617.6q23.467 38.4 37.333 89.6t13.867 100.267q0 44.8-13.333 96.533t-47.467 95.467l41.6 55.467q40.533-59.733 60.8-120t22.4-121.067q2.133-64-12.8-120.533t-43.733-104.533q-12.8-24.533-27.2-29.867t-35.733-5.333zM500.267 435.2q0 0 0 0t0 0 0 0 0 0 0 0 0 0 0 0 0 0 0 0 0 0z" />
<glyph unicode="&#xe90c;" glyph-name="menu" horiz-adv-x="1229" d="M40.963 857.599c0 21.726 8.631 42.563 23.994 57.926s36.199 23.994 57.926 23.994h983.037c21.729 0 42.568-8.631 57.928-23.994 15.365-15.363 23.992-36.2 23.992-57.926s-8.627-42.564-23.992-57.926c-15.36-15.363-36.198-23.994-57.928-23.994h-983.037c-21.727 0-42.563 8.631-57.926 23.994s-23.994 36.199-23.994 57.926zM40.963 448c0 21.725 8.631 42.562 23.994 57.925s36.199 23.994 57.926 23.994h983.037c21.729 0 42.568-8.631 57.928-23.994 15.365-15.363 23.992-36.2 23.992-57.925 0-21.729-8.627-42.563-23.992-57.928-15.36-15.365-36.198-23.992-57.928-23.992h-983.037c-21.727 0-42.563 8.627-57.926 23.992s-23.994 36.198-23.994 57.928zM40.963 38.4c0 21.724 8.631 42.563 23.994 57.923 15.363 15.365 36.199 23.997 57.926 23.997h491.517c21.729 0 42.568-8.632 57.928-23.997 15.365-15.36 23.992-36.198 23.992-57.923 0-21.729-8.627-42.563-23.992-57.928-15.36-15.365-36.198-23.992-57.928-23.992h-491.517c-21.727 0-42.563 8.627-57.926 23.992s-23.994 36.198-23.994 57.928z" />
<glyph unicode="&#xe90d;" glyph-name="caret-down" d="M442.092 121.201l-395.842 565.489c-55.426 79.18 1.22 187.977 97.871 187.977h735.759c96.649 0 153.293-108.797 97.869-187.977l-395.842-565.489c-33.971-48.531-105.844-48.53-139.815 0z" />
<glyph unicode="&#xe90e;" glyph-name="digital" d="M435.359 389.029l-81.63 7.421c-43.457 3.948-65.186 5.925-72.088 20.79s5.61 32.74 30.636 68.489l201.463 287.805c16.532 23.617 24.798 35.425 31.926 32.914s6.17-16.893 4.252-45.657l-12.891-193.379c-1.746-26.175-2.617-39.262 4.904-48.071 7.521-8.806 20.582-9.995 46.709-12.37l81.63-7.421c43.457-3.948 65.186-5.925 72.087-20.79 6.903-14.865-5.609-32.74-30.635-68.489l-201.463-287.807c-16.532-23.615-24.798-35.425-31.926-32.913s-6.17 16.893-4.252 45.656l12.891 193.38c1.746 26.175 2.617 39.262-4.904 48.071-7.521 8.806-20.582 9.995-46.709 12.37z" />
<glyph unicode="&#xe90f;" glyph-name="down" d="M503.6 249.333c0.998-1.274 2.273-2.304 3.728-3.015s3.053-1.075 4.672-1.075c1.619 0 3.216 0.364 4.672 1.075s2.731 1.741 3.728 3.015l149.336 188.934c5.461 6.933 0.529 17.2-8.402 17.2h-98.8v451.2c0 5.867-4.8 10.667-10.667 10.667h-80c-5.866 0-10.667-4.8-10.667-10.667v-451.067h-98.533c-8.933 0-13.867-10.267-8.4-17.2l149.333-189.067zM999.999 295.999h-79.997c-5.865 0-10.667-4.801-10.667-10.667v-205.335h-794.668v205.335c0 5.865-4.8 10.667-10.667 10.667h-80c-5.867 0-10.667-4.801-10.667-10.667v-263.999c0-23.598 19.067-42.667 42.667-42.667h911.999c23.603 0 42.667 19.069 42.667 42.667v263.999c0 5.865-4.801 10.667-10.667 10.667z" />
<glyph unicode="&#xe910;" glyph-name="budget" horiz-adv-x="878" d="M828.957 559.95c-22.126-17.508-46.307-32.349-70.649-44.517-89.804-44.903-204.757-67.425-319.451-67.425s-229.647 22.521-319.453 67.424c-24.332 12.167-48.514 27.004-70.636 44.508v-113.011c0.566-51.179 41.372-100.401 114.25-136.841 73.156-36.577 172.378-57.127 275.839-57.127s202.683 20.55 275.839 57.127c73.389 36.696 114.254 86.354 114.254 137.92h0.007v111.941zM828.957 267.379c-22.126-17.508-46.307-32.349-70.649-44.52-89.804-44.902-204.757-67.423-319.451-67.423s-229.647 22.521-319.453 67.423c-24.332 12.169-48.514 27.006-70.636 44.51v-111.933c0-107.717 174.651-195.043 390.095-195.043s390.094 87.325 390.094 195.043v111.943zM48.768 739.501c0.566-51.179 41.372-100.401 114.25-136.841 73.156-36.577 172.378-57.127 275.839-57.127s202.683 20.55 275.839 57.127c73.389 36.696 114.254 86.354 114.254 137.92h0.015c0 107.72-174.654 195.045-390.096 195.045s-390.092-87.324-390.095-195.045h-0.006v-1.079z" />
<glyph unicode="&#xe912;" glyph-name="inventory" d="M128 124.343v-74.057c0-11.886-3.886-21.716-11.657-29.488s-17.6-11.655-29.486-11.655h-27.429c-11.886 0-21.714 3.884-29.486 11.655s-11.657 17.602-11.657 29.488v444.343l116.571 351.086c2.743 12.8 9.829 22.857 21.257 30.171s24 10.971 37.714 10.971h636.343c13.714 0 26.284-3.657 37.712-10.971s18.516-17.371 21.259-30.171l116.571-351.086v-444.343c0-11.886-3.884-21.716-11.655-29.488s-17.602-11.655-29.488-11.655h-28.8c-11.886 0-21.716 3.884-29.488 11.655-7.768 7.771-11.655 17.602-11.655 29.488v74.057h-766.629zM132.114 576.914h759.771l-75.429 227.657h-608.914l-75.429-227.657zM245.943 275.2c21.029 0 38.629 7.314 52.8 21.943s21.257 32 21.257 52.114c0 21.029-7.086 39.084-21.257 54.17-14.171 15.089-31.771 22.63-52.8 22.63s-39.086-7.541-54.171-22.63c-15.086-15.086-22.629-33.141-22.629-54.17s7.543-38.627 22.629-52.798c15.086-14.171 33.143-21.259 54.171-21.259zM779.429 275.2c21.029 0 39.084 7.314 54.17 21.943s22.63 32 22.63 52.114c0 21.029-7.545 39.084-22.63 54.17-15.086 15.089-33.141 22.63-54.17 22.63s-38.627-7.541-52.798-22.63c-14.171-15.086-21.259-33.141-21.259-54.17s7.314-38.627 21.943-52.798c14.629-14.171 32-21.259 52.114-21.259z" />
<glyph unicode="&#xe914;" glyph-name="sales" d="M170.668 846.222c0 15.709 12.735 28.444 28.444 28.444h625.779c15.707 0 28.444-12.735 28.444-28.444v-113.778h-682.668v113.778zM171.862 675.556h680.28c-2.5-12.012-8.843-23.006-18.233-31.221l-61.844-54.113h-520.127l-61.842 54.113c-9.39 8.215-15.734 19.209-18.234 31.221zM316.954 533.333l157.588-137.887c21.447-18.768 53.473-18.768 74.923 0l157.585 137.887h-390.096zM568.889 533.333v-305.49l-56.747-56.201-57.031 56.482v305.209h113.778z" />
<glyph unicode="&#xe916;" glyph-name="setting" d="M603.522 927.89c9.157-9.744 10.65-24.698 13.643-54.607 5.691-56.933 8.539-85.4 26.411-95.432 2.721-1.529 5.62-2.728 8.625-3.573 19.732-5.543 41.874 12.573 86.154 48.805 23.264 19.033 34.895 28.55 48.258 28.967 2.131 0.067 4.257-0.040 6.368-0.318 13.257-1.745 23.883-12.371 45.139-33.625l43.985-43.986c21.252-21.254 31.882-31.881 33.627-45.137 0.276-2.11 0.382-4.24 0.315-6.367-0.417-13.364-9.933-24.995-28.967-48.259-36.23-44.284-54.347-66.426-48.805-86.157 0.847-3.006 2.044-5.902 3.572-8.625 10.035-17.873 38.502-20.72 95.437-26.411 29.909-2.993 44.863-4.486 54.607-13.643 1.552-1.457 2.981-3.037 4.277-4.726 8.141-10.606 8.141-25.635 8.141-55.694v-62.212c0-30.050 0-45.076-8.137-55.682-1.296-1.694-2.729-3.277-4.285-4.734-9.744-9.153-24.694-10.646-54.599-13.639-56.923-5.691-85.382-8.539-95.417-26.4-1.532-2.729-2.733-5.632-3.58-8.645-5.534-19.724 12.576-41.862 48.798-86.134v0c19.031-23.257 28.542-34.887 28.963-48.246 0.067-2.131-0.039-4.265-0.319-6.38-1.745-13.253-12.371-23.875-33.619-45.123l-43.993-43.993c-21.252-21.252-31.878-31.882-45.135-33.627-2.111-0.276-4.242-0.382-6.368-0.315-13.363 0.417-24.993 9.933-48.258 28.967-44.284 36.23-66.426 54.347-86.154 48.801-3.009-0.843-5.904-2.044-8.629-3.572-17.869-10.031-20.716-38.502-26.411-95.441-2.993-29.917-4.486-44.879-13.647-54.623-1.453-1.548-3.033-2.977-4.718-4.269-10.606-8.145-25.639-8.145-55.706-8.145h-62.196c-30.058 0-45.088 0-55.694 8.141-1.69 1.296-3.269 2.725-4.726 4.277-9.157 9.744-10.65 24.698-13.643 54.607-5.691 56.934-8.539 85.402-26.412 95.433-2.723 1.532-5.617 2.729-8.623 3.572-19.731 5.545-41.874-12.572-86.159-48.805-23.264-19.035-34.896-28.55-48.26-28.967-2.127-0.067-4.256 0.039-6.366 0.319-13.256 1.745-23.884 12.371-45.138 33.627l-43.985 43.985c-21.254 21.252-31.881 31.882-33.626 45.135-0.278 2.111-0.384 4.242-0.318 6.368 0.417 13.363 9.934 24.993 28.968 48.258 36.233 44.284 54.349 66.426 48.805 86.158-0.845 3.009-2.044 5.904-3.573 8.625-10.032 17.873-38.498 20.72-95.432 26.411-29.908 2.993-44.862 4.486-54.607 13.643-1.552 1.457-2.982 3.037-4.278 4.726-8.139 10.606-8.139 25.635-8.139 55.694v62.2c0 30.062 0 45.095 8.142 55.702 1.294 1.686 2.723 3.265 4.272 4.718 9.745 9.161 24.702 10.654 54.616 13.647 56.945 5.695 85.417 8.543 95.448 26.419 1.526 2.72 2.723 5.61 3.567 8.612 5.548 19.734-12.572 41.882-48.813 86.176-19.040 23.271-28.56 34.906-28.974 48.274-0.066 2.123 0.040 4.248 0.317 6.353 1.743 13.26 12.373 23.89 33.633 45.15l43.979 43.979c21.255 21.255 31.882 31.882 45.138 33.626 2.11 0.278 4.239 0.384 6.366 0.318 13.364-0.417 24.997-9.935 48.264-28.971 44.28-36.229 66.42-54.344 86.147-48.805 3.011 0.846 5.912 2.047 8.639 3.578 17.864 10.033 20.711 38.494 26.402 95.416v0c2.993 29.902 4.486 44.853 13.639 54.596 1.457 1.554 3.040 2.987 4.734 4.285 10.606 8.136 25.632 8.136 55.682 8.136h62.212c30.058 0 45.088 0 55.694-8.14 1.69-1.296 3.269-2.727 4.726-4.278zM512 251.077c108.757 0 196.923 88.166 196.923 196.923s-88.166 196.923-196.923 196.923c-108.757 0-196.923-88.166-196.923-196.923s88.166-196.923 196.923-196.923z" />
<glyph unicode="&#xe917;" glyph-name="education" horiz-adv-x="906" d="M452.923-64c31.165-0.039 61.57 9.799 86.985 28.152s44.579 44.304 54.831 74.248h-283.631c10.249-29.944 29.414-55.895 54.829-74.248s55.821-28.192 86.986-28.152zM805.195 315.597v234.803c0 164.71-109.958 303.462-258.918 345.19-14.746 37.786-50.779 64.41-93.353 64.41s-78.607-26.624-93.353-64.41c-148.961-41.779-258.921-180.48-258.921-345.19v-234.803l-85.905-87.398c-4.682-4.746-8.396-10.39-10.926-16.601s-3.828-12.875-3.819-19.598v-51.2c0-13.58 5.302-26.6 14.74-36.202s22.238-14.998 35.585-14.998h805.196c13.347 0 26.147 5.396 35.584 14.998 9.44 9.602 14.742 22.623 14.742 36.202v51.2c0.008 6.723-1.288 13.387-3.82 19.598-2.528 6.211-6.242 11.855-10.925 16.601l-85.906 87.398z" />
</font>
</defs>
</svg>
